<svg width="24" height="24" viewBox="0 0 24 24" fill="none" xmlns="http://www.w3.org/2000/svg">
    <path d="M1 9.15067V7.87935L5.11212 6V15.1756C5.11212 15.603 5.45579 15.9495 5.87972 15.9495H6.48283V17.3314H1V15.9495H1.93208C2.35601 15.9495 2.69968 15.603 2.69968 15.1756V8.81005C2.69968 8.65468 2.54491 8.54777 2.40119 8.60386L1 9.15067Z" fill="#D91022"/>
    <path fill-rule="evenodd" clip-rule="evenodd" d="M14.7307 6.18542C12.1603 5.97877 7.02912 7.04392 7.06696 12.9577C7.06696 16.63 9.76346 17.3931 11.23 17.3931C12.6965 17.3931 15.2511 16.63 15.2511 13.3393C15.2511 10.0485 12.4246 9.5463 10.4377 10.1186C10.4377 8.40169 13.2799 7.4731 14.7307 7.23464V6.18542ZM9.82396 11.8869C9.60568 13.242 9.50103 15.9576 11.4879 15.9576C13.4748 15.9576 13.0169 10.6557 9.82396 11.8869Z" fill="#D91022"/>
    <path d="M15.8151 9.33805C15.9627 8.25403 16.9239 6.18693 19.5785 6.086C22.8474 5.96172 22.8791 8.25114 22.8474 8.82504C22.8158 9.39894 22.235 10.2945 21.6657 10.6133C22.8042 11.0597 23.5 11.9843 23.5 13.4828C23.5 14.9813 22.1401 17.5 18.6297 17.5C15.1194 17.5 15.5852 15.2856 16.5094 14.9053L16.5267 14.8982C17.0384 14.6874 17.5012 14.4968 18.552 15.5561C19.058 15.9706 21.223 16.3522 21.1281 13.9291C21.0522 11.9907 18.8406 12.0799 17.7442 12.3669V11.251C19.0514 10.9003 21.1281 9.63224 20.0845 8.54097C19.0336 7.44208 17.0696 8.75352 16.8587 9.91193L15.8151 9.33805Z" fill="#D91022"/>
</svg>
