<svg width="24" height="24" viewBox="0 0 48 48" fill="none" xmlns="http://www.w3.org/2000/svg">
<path fill-rule="evenodd" clip-rule="evenodd" d="M14.8816 11.1758L7.03662 23.3363L14.8816 35.4967L21.1484 33.9325L21.4583 12.8177L14.8816 11.1758Z" fill="#876929"/>
<path fill-rule="evenodd" clip-rule="evenodd" d="M23.6427 33.3104L14.8818 35.4963V11.1758L23.6427 13.3617V33.3104Z" fill="#D9A741"/>
<path fill-rule="evenodd" clip-rule="evenodd" d="M22.6006 15.3479L23.6434 42.8236L40.2023 34.761L40.1976 14.2363L35.9742 14.9177L22.6001 15.3474L22.6006 15.3479Z" fill="#876929"/>
<path fill-rule="evenodd" clip-rule="evenodd" d="M28.9183 20.7753L34.0855 20.4779L39.192 11.4595L26.2784 5.17578L21.4585 7.22943L28.9183 20.7753Z" fill="#876929"/>
<path fill-rule="evenodd" clip-rule="evenodd" d="M26.2783 5.17578L39.1919 11.4595L34.0854 20.4779L26.2783 5.17578Z" fill="#D9A741"/>
<path fill-rule="evenodd" clip-rule="evenodd" d="M23.6424 7.7832L34.0852 26.2317L35.8799 36.8646L23.6424 42.8237L18.6865 40.4091V9.71309L23.6376 7.7832H23.6424Z" fill="#876929"/>
<path fill-rule="evenodd" clip-rule="evenodd" d="M40.1977 14.2359L40.202 34.7611L23.6431 42.8237V7.7832L34.0859 26.2317L40.1977 14.2359Z" fill="#D9A741"/>
</svg>
