<svg width="24" height="24" viewBox="0 0 24 24" fill="none" xmlns="http://www.w3.org/2000/svg">
    <path d="M19.1192 4.27693C17.1169 3.03726 14.4809 3.33261 12.1299 4.79643C9.78629 3.33261 7.14868 3.03726 5.14883 4.27693C1.98533 6.23598 1.60072 11.2813 4.29059 15.5465C6.27329 18.691 9.3739 20.5335 12.134 20.4995C14.8941 20.5335 17.9947 18.691 19.9774 15.5465C22.664 11.2813 22.2827 6.23598 19.1192 4.27693ZM5.74495 14.6459C5.19031 13.7746 4.77183 12.8252 4.50372 11.8299C4.26551 10.9659 4.17444 10.0686 4.23424 9.17495C4.35428 7.59865 5.00184 6.37111 6.05689 5.7181C7.11193 5.06508 8.50668 5.02543 9.99207 5.60967C10.215 5.69787 10.4355 5.79983 10.6543 5.9123C9.8289 6.65811 9.11116 7.51311 8.52138 8.45315C6.88818 11.0426 6.39006 13.9241 6.96004 16.2214C6.50556 15.7355 6.09869 15.208 5.74495 14.6459ZM19.7651 11.8291C19.4966 12.8243 19.0782 13.7736 18.5239 14.6451C18.1698 15.208 17.763 15.7366 17.3088 16.2238C17.8183 14.1644 17.4721 11.6414 16.2227 9.27529C16.2027 9.23632 16.1748 9.20193 16.1406 9.17435C16.1064 9.14677 16.0667 9.12661 16.0241 9.11517C15.9816 9.10373 15.9371 9.10127 15.8935 9.10794C15.8499 9.11462 15.8082 9.13028 15.7711 9.15391L11.876 11.5653C11.8404 11.5873 11.8096 11.616 11.7853 11.6497C11.761 11.6835 11.7436 11.7217 11.7342 11.7622C11.7248 11.8026 11.7235 11.8445 11.7305 11.8854C11.7374 11.9263 11.7525 11.9655 11.7747 12.0006L12.3463 12.9061C12.3684 12.9413 12.3973 12.9718 12.4313 12.9959C12.4653 13.02 12.5038 13.0372 12.5445 13.0465C12.5853 13.0558 12.6275 13.0571 12.6687 13.0502C12.71 13.0433 12.7494 13.0285 12.7848 13.0065L15.3097 11.4431C15.3914 11.6859 15.4731 11.9286 15.5343 12.1714C15.7725 13.0343 15.8638 13.9304 15.8046 14.8231C15.6846 16.3986 15.037 17.6261 13.982 18.2799C13.4378 18.6096 12.8142 18.7885 12.1765 18.7978H12.0956C11.4578 18.7887 10.8342 18.6098 10.2901 18.2799C9.23427 17.6261 8.5867 16.3986 8.46666 14.8231C8.40723 13.9294 8.4983 13.0322 8.73614 12.1681C9.28341 10.1691 10.4147 8.37501 11.9878 7.01118C12.6662 6.42111 13.4389 5.94694 14.2743 5.60805C15.7556 5.02381 17.1528 5.06265 18.2087 5.71648C19.2645 6.3703 19.9113 7.59703 20.0313 9.17333C20.0919 10.0671 20.0019 10.9646 19.7651 11.8291Z" fill="#1BDBDB"/>
</svg>
