<svg width="24" height="24" viewBox="0 0 24 24" fill="none" xmlns="http://www.w3.org/2000/svg">
    <g clip-path="url(#clip0_44255_138803)">
        <path d="M11.9999 10.529C12.8126 10.529 13.4712 11.1875 13.4712 11.9999C13.4712 12.8126 12.8126 13.4712 11.9999 13.4712C11.1874 13.4712 10.5288 12.8123 10.5288 11.9999C10.5288 11.1875 11.1874 10.529 11.9999 10.529ZM6.98719 11.9999C6.98719 9.23147 9.23147 6.98726 11.9999 6.98726C14.7687 6.98726 17.0128 9.23147 17.0128 11.9999C17.0128 12.1832 17.003 12.364 16.9838 12.5418C16.9457 13.0305 17.3043 13.4035 17.7899 13.4035C18.6139 13.4035 18.7017 12.341 18.7017 11.9999C18.7017 8.29844 15.7013 5.29808 11.9999 5.29808C8.29844 5.29808 5.29808 8.29852 5.29808 11.9999C5.29808 15.7012 8.29844 18.7017 11.9998 18.7017C13.9655 18.7017 15.7336 17.8558 16.9596 16.5079L18.3373 17.6649C16.7811 19.4045 14.5183 20.5003 11.9999 20.5003C7.30548 20.5003 3.5 16.6944 3.5 11.9999C3.5 7.30548 7.30548 3.5 11.9999 3.5C16.6945 3.5 20.5 7.30548 20.5 12C20.5 13.8869 19.6015 15.4192 17.7969 15.4192C17.0026 15.4192 16.5199 15.0554 16.2563 14.6492C15.3711 16.0682 13.796 17.013 11.9999 17.013C9.2314 17.013 6.98719 14.7684 6.98719 12V11.9999ZM11.9999 8.78522C10.2246 8.78522 8.78515 10.2244 8.78515 11.9999C8.78515 13.7754 10.2246 15.2148 11.9999 15.2148C13.7753 15.2148 15.2148 13.7754 15.2148 11.9999C15.2148 10.2244 13.7753 8.78522 11.9999 8.78522Z" fill="#AF252A"/>
    </g>
    <defs>
        <clipPath id="clip0_44255_138803">
            <rect width="17" height="17" fill="white" transform="translate(3.5 3.5)"/>
        </clipPath>
    </defs>
</svg>
