<svg width="24" height="24" viewBox="0 0 24 24" fill="none" xmlns="http://www.w3.org/2000/svg">
    <g clip-path="url(#clip0_8806_41212)">
        <path d="M20.7275 3.5H16.2771C16.1099 3.49998 15.9445 3.53195 15.7901 3.59409C15.6357 3.65622 15.4955 3.7473 15.3773 3.86212L4.87277 14.0666C4.75458 14.1813 4.66082 14.3176 4.59686 14.4675C4.5329 14.6175 4.49998 14.7782 4.5 14.9405V19.2639C4.49999 19.4262 4.5329 19.5869 4.59684 19.7369C4.66079 19.8869 4.75451 20.0232 4.87268 20.138C4.99084 20.2527 5.13112 20.3438 5.28551 20.4059C5.4399 20.468 5.60537 20.5 5.77248 20.5H10.2229C10.3901 20.5 10.5555 20.468 10.7099 20.4059C10.8643 20.3438 11.0045 20.2527 11.1227 20.1379L21.6274 9.93344C21.866 9.70163 22 9.38725 22 9.05945V4.73614C22 4.5738 21.9671 4.41306 21.9032 4.26308C21.8392 4.1131 21.7455 3.97683 21.6273 3.86204C21.5092 3.74725 21.3689 3.6562 21.2145 3.59408C21.0601 3.53196 20.8946 3.49999 20.7275 3.5Z" fill="#28A8EA"/>
        <path d="M20.764 20.5H16.4406C16.1127 20.5 15.7983 20.3698 15.5665 20.138L13.5 18.0714V14.21C13.5 13.6239 13.7328 13.0617 14.1473 12.6473C14.5617 12.2328 15.1239 12 15.71 12H19.5714L21.638 14.0666C21.8698 14.2984 22 14.6127 22 14.9406V19.264C22 19.5918 21.8698 19.9062 21.638 20.138C21.4062 20.3698 21.0918 20.5 20.764 20.5Z" fill="#0078D4"/>
        <path d="M5.80875 3.5H10.3865C10.7336 3.5 11.0665 3.63023 11.3119 3.86203L13.5 5.92857V9.79C13.5 10.3761 13.2535 10.9383 12.8146 11.3527C12.3758 11.7672 11.7806 12 11.16 12H7.07143L4.88332 9.93345C4.63789 9.70165 4.5 9.38726 4.5 9.05944V4.73604C4.5 4.40822 4.63789 4.09383 4.88332 3.86203C5.12876 3.63023 5.46165 3.5 5.80875 3.5Z" fill="#50D9FF"/>
        <path opacity="0.2" d="M12.4999 7.86439V17.6356C12.5007 17.6855 12.4958 17.7353 12.4854 17.784C12.4523 17.9846 12.3504 18.1668 12.1979 18.298C12.0453 18.4291 11.8521 18.5007 11.6526 18.5H4.5V7H11.6526C11.7639 6.9998 11.8742 7.02202 11.9771 7.06539C12.08 7.10876 12.1735 7.17242 12.2522 7.25273C12.3309 7.33303 12.3933 7.4284 12.4358 7.53336C12.4783 7.63833 12.5001 7.75082 12.4999 7.86439Z" fill="black"/>
        <path opacity="0.1" d="M13 7.73535V16.7646C12.997 17.0913 12.8663 17.4038 12.6362 17.6348C12.406 17.8658 12.0948 17.9969 11.7693 18H4.5V6.5H11.7693C12.0954 6.50114 12.4077 6.63166 12.6383 6.86309C12.8688 7.09452 12.9989 7.40807 13 7.73535Z" fill="black"/>
        <path opacity="0.2" d="M12.5 7.84365V16.6563C12.5002 16.7672 12.4784 16.877 12.4359 16.9794C12.3934 17.0819 12.331 17.175 12.2523 17.2533C12.1735 17.3317 12.0801 17.3938 11.9772 17.4362C11.8743 17.4785 11.764 17.5002 11.6527 17.5H4.5V7H11.6527C11.764 6.99981 11.8743 7.0215 11.9772 7.06382C12.0801 7.10615 12.1735 7.16829 12.2523 7.24667C12.331 7.32505 12.3934 7.41813 12.4359 7.52057C12.4784 7.62301 12.5002 7.73281 12.5 7.84365Z" fill="black"/>
        <path opacity="0.1" d="M12.5 7.84365V16.6563C12.5002 16.7672 12.4774 16.877 12.4328 16.9794C12.3883 17.0819 12.3229 17.175 12.2405 17.2533C12.158 17.3317 12.0601 17.3938 11.9523 17.4362C11.8445 17.4785 11.729 17.5002 11.6123 17.5H4.5V7H11.6123C11.729 6.99981 11.8445 7.0215 11.9523 7.06382C12.0601 7.10615 12.158 7.16829 12.2405 7.24667C12.3229 7.32505 12.3883 7.41813 12.4328 7.52057C12.4774 7.62301 12.5002 7.73281 12.5 7.84365Z" fill="black"/>
        <path d="M11.625 7H2.875C2.39175 7 2 7.3731 2 7.83333V16.1667C2 16.6269 2.39175 17 2.875 17H11.625C12.1082 17 12.5 16.6269 12.5 16.1667V7.83333C12.5 7.3731 12.1082 7 11.625 7Z" fill="#0078D4"/>
        <path d="M9.3409 10.3125H6.35525V11.5747H9.15765V12.3836H6.35525V13.6945H9.5V14.5H5V9.5H9.34089L9.3409 10.3125Z" fill="white"/>
    </g>
    <defs>
        <clipPath id="clip0_8806_41212">
            <rect width="24" height="24" fill="white"/>
        </clipPath>
    </defs>
</svg>
