<svg width="24" height="24" viewBox="0 0 24 24" fill="none" xmlns="http://www.w3.org/2000/svg">
    <path d="M18.8583 18.5H4.99023C3.88925 18.5 3 17.6107 3 16.5098V7.49023C3 6.38925 3.88925 5.5 4.99023 5.5H18.8583C19.9593 5.5 20.8485 6.38925 20.8485 7.49023V16.5098C20.8274 17.6107 19.9381 18.5 18.8583 18.5Z" fill="#2948FF"/>
    <path d="M13.0358 13.2491C12.3583 13.7149 11.4691 13.7149 10.7915 13.2491L9.16124 12.1269L8.46254 12.9315L10.6433 14.9429C11.342 15.6628 12.4853 15.6628 13.184 14.9429L15.3648 12.9315L14.6661 12.1269L13.0358 13.2491V13.2491ZM3 7.91357L8.01791 12.5292L8.67427 11.7882L3 7.91357ZM15.1743 11.7882L15.8094 12.5292L20.8274 7.91357L15.1743 11.7882Z" fill="#103BB2"/>
    <path d="M15.8096 12.5288L15.365 12.9311L19.8959 18.1819C20.0653 18.076 20.2135 17.949 20.3405 17.8008L15.8096 12.5288ZM3.46594 17.8008C3.59298 17.949 3.74119 18.076 3.91057 18.1819L8.44151 12.9311L7.99689 12.5288L3.46594 17.8008Z" fill="#1943C2"/>
    <path d="M15.1742 11.7886L14.666 12.1273L15.3647 12.9319L15.8094 12.5296L15.1742 11.7886ZM8.01782 12.5296L8.46245 12.9319L9.16114 12.1273L8.67417 11.7886L8.01782 12.5296Z" fill="#112E85"/>
    <path d="M20.2557 6.09266C19.8958 5.73272 19.4088 5.521 18.8583 5.521H4.99023C4.43974 5.521 3.95277 5.73272 3.59283 6.09266C3.21173 6.45259 3 6.93956 3 7.49005V7.89233L8.67427 11.7669L9.16124 12.1057L10.7915 13.2278C11.4691 13.6936 12.3583 13.6936 13.0358 13.2278L14.6661 12.1057L15.1531 11.7669L20.8274 7.89233V7.49005C20.8274 6.93956 20.6156 6.45259 20.2557 6.09266V6.09266Z" fill="#396AFC"/>
</svg>
