<svg width="24" height="24" viewBox="0 0 24 24" fill="none" xmlns="http://www.w3.org/2000/svg">
    <path d="M9.66903 4.35967C10.5741 4.06701 11.5416 3.98571 12.4901 4.00197C12.4833 4.10088 12.4711 4.30005 12.4643 4.40032C11.1712 4.59407 9.98656 5.27559 9.10862 6.23758C8.68254 6.49908 8.48578 6.98143 8.15197 7.33642C7.75846 8.21711 7.39209 9.11949 7.26318 10.0828C7.06235 11.5068 7.31203 12.9527 7.15462 14.3806C6.97686 14.527 6.80182 14.6787 6.62677 14.8305C6.54807 14.8496 6.39066 14.8887 6.31196 14.909C5.93473 15.0825 5.51408 15.0135 5.11514 14.9863C4.90888 14.8263 4.69584 14.6746 4.48145 14.5256C4.45974 14.3888 4.43667 14.2533 4.4136 14.1178C3.81655 12.6707 3.91018 10.9703 4.41089 9.50564C4.4828 9.27124 4.54929 9.03548 4.609 8.79837C4.86682 8.29841 5.15449 7.81335 5.4408 7.32829C5.98494 6.77684 6.43273 6.12512 7.07728 5.678C7.45315 5.34198 7.96472 5.20378 8.31888 4.84337C8.40708 4.83253 8.58348 4.8095 8.67168 4.79866L8.93086 4.5602C9.01363 4.55478 9.17918 4.54258 9.26195 4.53581C9.399 4.4789 9.5347 4.4205 9.66903 4.35967V4.35967Z" fill="#FEDE15"/>
    <path d="M13.1784 4.28929C14.6765 4.25407 16.0646 4.99385 17.2031 5.90706C18.5275 7.06687 19.5113 8.64399 19.822 10.3891C20.2481 12.2616 19.8885 14.2642 18.9712 15.9387C18.788 16.2627 18.5411 16.5445 18.2832 16.8113C18.5112 15.9238 18.7921 15.0363 18.8179 14.1136C18.8002 13.4294 18.6686 12.7506 18.4691 12.0975C17.6753 9.8687 15.6684 8.30513 13.5204 7.46643C12.8595 7.25642 12.3046 6.77949 12.0481 6.13049C12.0576 5.69421 12.1824 5.27689 12.3507 4.87855C12.6007 4.6482 12.8788 4.45022 13.1784 4.28929V4.28929Z" fill="#49AB30"/>
    <path d="M10.9556 8.92452C11.6477 8.44623 12.5718 8.53837 13.2719 8.94484C13.2584 9.00175 13.2299 9.11556 13.2149 9.17247C13.3737 9.22937 13.6003 9.22937 13.6912 9.40416C14.0698 9.9529 14.1512 10.6398 14.1729 11.2902C14.6289 11.8322 14.9288 12.4893 14.9369 13.206C14.6845 13.1153 14.4416 12.8702 14.1689 12.9175C14.0074 13.118 13.8907 13.3485 13.755 13.5651C14.1227 13.6261 14.4403 13.8889 14.3548 14.294C13.5935 14.6368 12.607 14.7263 11.9367 14.1477C11.2813 14.6233 10.4224 14.6179 9.71268 14.2642C9.67469 13.9201 9.84838 13.6801 10.1713 13.5677C9.97186 13.3321 9.80224 13.0745 9.65705 12.8035C9.42501 12.916 9.19433 13.0311 8.96094 13.1436C9.04371 12.4214 9.36938 11.744 9.9013 11.2454C9.92844 10.4229 10.0967 9.52596 10.7725 8.97858C11.2682 9.017 10.9058 8.88985 10.9556 8.92452Z" fill="#2789B7"/>
    <path d="M15.5884 15.298C15.9995 14.9769 16.526 14.9484 17.0254 14.9986C17.6143 15.2613 17.9793 15.7952 18.138 16.4063C18.0512 16.7613 18.0105 17.1556 17.7513 17.4388C16.7838 18.5539 15.4717 19.3668 14.036 19.7204C12.1064 20.2773 9.99232 19.9725 8.21745 19.0714C6.62711 18.2546 5.3828 16.8521 4.65955 15.229C4.72332 15.2372 4.85087 15.2546 4.91465 15.2629C5.66097 16.1951 6.67867 16.8996 7.78322 17.3454C8.18488 17.4632 8.59332 17.5526 9.00311 17.6366C9.53775 17.7097 10.0846 17.7206 10.6192 17.6325C11.2773 17.5663 11.9151 17.3764 12.5298 17.1381C13.6615 16.7261 14.6195 15.9889 15.5884 15.298Z" fill="#F80A06"/>
</svg>
