<svg width="24" height="24" viewBox="0 0 24 24" fill="none" xmlns="http://www.w3.org/2000/svg">
    <path fill-rule="evenodd" clip-rule="evenodd" d="M2.69064 3.05825C2.809 2.98536 2.95623 2.98057 3.07893 3.04561L12.1831 7.8717C12.3138 7.94101 12.3958 8.07842 12.3958 8.22826V21.0978C12.3958 21.2353 12.3267 21.3632 12.2126 21.437C12.0985 21.5109 11.9552 21.5204 11.8326 21.4623L5.89511 18.6471C5.75574 18.581 5.66667 18.4389 5.66667 18.2826V11.292L2.71881 9.7945C2.58471 9.72637 2.5 9.58711 2.5 9.43478V3.40217C2.5 3.26156 2.57229 3.13115 2.69064 3.05825ZM3.29167 4.06563V9.18623L6.23952 10.6838C6.37362 10.7519 6.45833 10.8911 6.45833 11.0435V18.0265L11.6042 20.4663V8.47205L3.29167 4.06563Z" fill="black"/>
    <path fill-rule="evenodd" clip-rule="evenodd" d="M21.3092 3.05825C21.1909 2.98536 21.0437 2.98057 20.9209 3.04561L11.8168 7.8717C11.686 7.94101 11.604 8.07842 11.604 8.22826V21.0978C11.604 21.2353 11.6731 21.3632 11.7872 21.437C11.9014 21.5109 12.0447 21.5204 12.1673 21.4623L18.1048 18.6471C18.2441 18.581 18.3332 18.4389 18.3332 18.2826V11.292L21.2811 9.7945C21.4152 9.72637 21.4999 9.58711 21.4999 9.43478V3.40217C21.4999 3.26156 21.4276 3.13115 21.3092 3.05825ZM20.7082 4.06563V9.18623L17.7604 10.6838C17.6263 10.7519 17.5415 10.8911 17.5415 11.0435V18.0265L12.3957 20.4663V8.47205L20.7082 4.06563Z" fill="black"/>
    <path fill-rule="evenodd" clip-rule="evenodd" d="M2.5 3.40217C2.5 3.18006 2.67722 3 2.89583 3L21.1042 3C21.3228 3 21.5 3.18006 21.5 3.40217C21.5 3.62429 21.3228 3.80435 21.1042 3.80435L2.89583 3.80435C2.67722 3.80435 2.5 3.62429 2.5 3.40217Z" fill="black"/>
</svg>
