<svg width="50" height="50" viewBox="0 0 50 50" fill="none" xmlns="http://www.w3.org/2000/svg">
<path d="M20.2666 6.25H15.625C13.0362 6.25 10.9375 8.34867 10.9375 10.9375V39.0625C10.9375 41.6513 13.0362 43.75 15.625 43.75H34.375C36.9638 43.75 39.0625 41.6513 39.0625 39.0625V25M20.2666 6.25C22.8554 6.25 25 8.34867 25 10.9375V15.625C25 18.2138 27.0987 20.3125 29.6875 20.3125H34.375C36.9638 20.3125 39.0625 22.4112 39.0625 25M20.2666 6.25C27.9539 6.25 39.0625 17.416 39.0625 25" stroke="#53545C" stroke-width="3" stroke-linecap="round" stroke-linejoin="round"/>
<path d="M20.833 33.8373L22.9972 36.2992C23.1957 36.5249 23.5535 36.5083 23.73 36.2651L28.1247 30.2085" stroke="#53545C" stroke-width="3" stroke-linecap="round" stroke-linejoin="round"/>
</svg>
